<?xml version="1.0" encoding="utf-8"?>
<!-- Generator: $$$/GeneralStr/196=Adobe Illustrator 27.6.0, SVG Export Plug-In . SVG Version: 6.00 Build 0)  -->
<svg version="1.1" id="圖層_1" xmlns="http://www.w3.org/2000/svg" xmlns:xlink="http://www.w3.org/1999/xlink" x="0px" y="0px"
	 viewBox="0 0 197 197" style="enable-background:new 0 0 197 197;" xml:space="preserve">
<style type="text/css">
	.st0{fill:#3670C7;}
</style>
<g>
    <animateTransform attributeName="transform" begin="0s" dur="60s" type="rotate" from="0 98.5 98.5" to="360 98.5 98.5" repeatCount="indefinite"/>
	<path class="st0" d="M104.8,19.4l-6.4-0.9c1.4-4,2.9-9.5,4.1-17.2l6.2,0.9C107.6,9.3,106.3,14.7,104.8,19.4z M108.6,22l-3.3-0.5
		l0.9-6.4l1,0.2c0.2,0,0.3-0.1,0.3-0.2L109.7,0l6.6,0.9l-2.5,17.6C113.4,21.3,111.9,22.5,108.6,22z M114.8,20.8l1.6-17.5l6.2,0.9
		l-1.5,17.6L114.8,20.8z"/>
	<path class="st0" d="M144.8,16l-0.2,0.3l2.7,1.2L141,31.2l-0.5-0.2l-0.4,1.6l-4.1-1.9l0.4-1.6l-0.3-0.2c-0.3,0.5-0.6,1-0.9,1.3
		l-4.5-2c0.4-0.3,0.8-0.8,1.1-1.2l-0.3-0.2l2-4.3c-0.1-0.1-0.3-0.1-0.4-0.2l-2.6,5.8l-9.9-4.4l2.5-5.5c-0.1,0-0.2-0.1-0.3-0.1
		l2.3-5.1c0.8,0.4,1.6,0.6,2.3,0.8c0-0.3,0-0.5-0.1-0.8c-0.6,0-1.2,0-1.8-0.1l1.8-3.9L127,8.9l2.2-4.9l2.6,1.1l0.2-0.4l4.7,2.2
		l-0.2,0.4l2.6,1.2l0.1-0.3l10.2,4.6l-2,4.3L144.8,16z M127.7,22.4l-0.9-0.4l-0.4,0.8l0.9,0.4L127.7,22.4z M128.9,18.5
		c-0.5,0.1-1.1,0.2-1.7,0.2l2.7,1.2C129.5,19.5,129.1,19,128.9,18.5z M129.2,12.6c-0.3,0.1-0.6,0.2-0.9,0.3l2.3,1.1
		c0.3-0.1,0.7-0.2,0.9-0.3L129.2,12.6z M133.9,10.3l-2-0.9l-0.2,0.5l2,0.9L133.9,10.3z M137.5,13.6l-0.4-0.2l-1,2.1
		c-0.4,0.6-1,1.1-1.8,1.7c0.4,0.2,0.8,0.4,1.3,0.6L137.5,13.6z M138.5,24.9l-0.7-0.3l-0.4,0.9l0.7,0.3L138.5,24.9z M137.9,12.8
		l-0.2,0.4l2.1,0.9l0.2-0.3L137.9,12.8z M139.8,22l-0.7-0.3l-0.4,0.9l0.7,0.3L139.8,22z M141.1,19.1l-0.7-0.3l-0.4,0.8l0.7,0.3
		L141.1,19.1z"/>
	<path class="st0" d="M150.9,31.3l-3,3.5c-1.2,1.4-3.1,1.6-4.3,0.5l-3.1-2.6l4-4.6l0.6,0.5c0.2,0.2,0.5,0.2,0.7-0.1l0.3-0.3
		c-0.4-0.3-0.8-0.6-1.2-0.9l4.1-4.8c0.4,0.3,0.8,0.6,1.2,0.9l1.3-1.5l-1.1-0.9l3.7-4.3l1.1,0.9l0.7-0.8l4.3,3.7l-0.7,0.8l1,0.9
		l-3.7,4.3l-1-0.9l-0.7,0.8c0.4,0.2,0.9,0.4,1.2,0.6l-4.2,4.9C151.7,31.7,151.3,31.6,150.9,31.3z M152.6,43.1l0.9-1l-0.9-0.8l-0.9,1
		l-4.6-3.9l8.7-10.1l10.1,8.6L157.2,47L152.6,43.1z M156.1,39l-0.9-0.8l-0.6,0.6l0.9,0.8L156.1,39z M156.1,27.9l5.3-6.1l10.1,8.6
		l-5.3,6.1L156.1,27.9z M158.7,36l-0.9-0.8l-0.5,0.6l0.9,0.8L158.7,36z M164.8,29.6l-1.6-1.4l-0.5,0.6l1.6,1.4L164.8,29.6z"/>
	<path class="st0" d="M169.4,58.4c-2.3,0-4.6-0.7-6.2-2.2l0.5-0.3l-1.5-2.3l0.6-0.5c-1.1,0-2-0.6-2.8-1.8l-1.5-2.2l0.4-0.3l-1.6-2.5
		c1.2-0.2,2.8-1.2,4.3-2.2l1.7,2.6c-0.1,0.1-0.3,0.2-0.4,0.3l0.2,0.3c0.1,0.1,0.2,0.1,0.3,0L164,47l-2-3l3.5-2.3l6.1,9.2l-2.3,1.5
		c2,1,3.2,1,5.6-0.6c-0.4,0.1-0.8,0.2-1.2,0.2l-1.4-2.1l-0.7,0.4l-5.6-8.5l2.8-1.8l5,7.6c0.2,0,0.3-0.1,0.4-0.1l-5.3-8.1l2.9-1.9
		l1.5,2.4l0.4-0.2l-1.5-2.4l2.9-1.9l1.5,2.4l0.5-0.3l2.8,4.3l-0.5,0.3l1.4,2.2l-2.9,1.9l-1.4-2.2l-0.4,0.2l1.4,2.2l-0.8,0.5
		c2-0.6,3.8-1.4,5.1-2.2l3.1,4.7c-0.2,0.2-0.5,0.3-0.8,0.4l2.7,4.1l-4.2,2.7l-4.1,1.9l-1.4-2.2c-0.2,0.1-0.4,0.2-0.6,0.3
		c-1.9,1.7-2.1,3.1-1.4,4.8l-6.1,4C168.3,62.9,168.5,60.6,169.4,58.4z M168,53.1l-1.3-2l-0.5,0.3l1.3,2L168,53.1z M179.2,51.6
		c-0.2,0.1-0.4,0.1-0.7,0.2l0.9,1.3l0.6-0.3L179.2,51.6z"/>
	<path class="st0" d="M183.6,74.5c-0.9,0.3-2-0.3-2.2-1.2c-0.3-0.9,0.2-2,1.2-2.3c1-0.3,2,0.2,2.3,1.2
		C185.1,73.2,184.6,74.2,183.6,74.5z"/>
	<path class="st0" d="M177.7,97.7l-0.2-10.3l19.3-0.4l0.2,10.7c0.1,5.6-3.2,7.9-7.6,8l-3.1,0.1C181,105.8,177.8,103.7,177.7,97.7z
		 M188.9,98.6c0.9,0,1.8-0.5,1.7-2.1l-0.1-2.5l-6.7,0.2l0.1,2.3c0.1,1.9,1,2.3,2,2.2L188.9,98.6z"/>
	<path class="st0" d="M175,118.6l1.2-5.2c1-4.2,3.4-5.6,7.1-4.8l2.9,0.6c3.6,0.8,5.2,3.2,4.2,7.4l-1.2,5.2c-1,4.3-3.6,5.4-6.9,4.7
		l-3-0.7C175.8,125.1,174,122.9,175,118.6z M182.4,120.1c0.4,0.1,0.9-0.1,1.1-0.7l0.7-2.9c0.2-0.7-0.2-1-0.7-1.1l-0.6-0.1
		c-0.5-0.1-0.9-0.1-1.1,0.8l-0.7,2.9c-0.2,0.8,0.3,1,0.7,1.1L182.4,120.1z"/>
	<path class="st0" d="M168.6,135.1l6.1,3c0.8,0.4,1.3,0.1,1.6-0.6l0.7-1.3c0.4-0.8,0.2-1.5-0.5-1.8l-6.1-3l3-6.2l8.2,4
		c2.8,1.4,3.9,3.9,2.4,6.7l-3.4,6.9c-1.4,2.9-4.2,3.9-7,2.5l-8.2-4L168.6,135.1z"/>
	<path class="st0" d="M156.3,152.5l5.7-6.7c2-2.4,4.4-2.6,6.2-1.1l0.8,0.6c1.7,1.5,1.8,3.7-0.1,5.9l-4.5,5.3
		c0.4,0.3,0.7,0.3,1.1-0.2l6.4-7.6l3.7,3.1l-7.9,9.3c-2.6,3.1-4.9,2.7-7.7,0.4l-3.8-3.2C154.4,157,154.3,154.8,156.3,152.5z
		 M161.4,153.9c0.2,0.1,0.4,0.1,0.6-0.2l2.3-2.7c0.3-0.3,0.3-0.5,0.1-0.7l-0.2-0.1c-0.2-0.2-0.4-0.2-0.7,0.2l-2.3,2.7
		c-0.3,0.3-0.2,0.5,0,0.6L161.4,153.9z"/>
	<path class="st0" d="M149.9,168.6l-0.7-0.9c-0.4-0.5-0.5-0.5-1.1-0.1l-5.2,3.9l-3.7-4.9l7-5.2c3.2-2.3,5.4-1.7,7.1,0.5l2,2.7
		l2.4-1.8l3.7,5l-2.4,1.8l1.6,2.2l-5.4,4l-1.6-2.2l-6.2,4.6l-3.7-5L149.9,168.6z"/>
	<path class="st0" d="M128.4,177.5l6.6-2.9c-0.2-0.4-0.6-0.6-1.3-0.3l-9.4,4.1l-1.9-4.4l11.2-4.9c3.3-1.5,5.4-0.6,6.9,3l1.8,4.1
		c0.9,2,0.5,4.6-2.6,5.9l-7.7,3.3c-2.8,1.2-4.9,0.3-6-2l-0.3-0.7C124.9,180.6,125.3,178.9,128.4,177.5z M131.8,180.5
		c0.1,0.3,0.4,0.4,0.8,0.2l3.3-1.5c0.6-0.2,0.8-0.7,0.6-1.2l-0.1-0.2l-4.3,1.9C131.8,179.9,131.7,180.1,131.8,180.5L131.8,180.5z"/>
	<path class="st0" d="M110.1,185.7c-0.2-0.9,0.6-1.9,1.5-2c0.9-0.2,1.9,0.5,2.1,1.5c0.2,1-0.5,1.9-1.5,2.1
		C111.1,187.4,110.2,186.7,110.1,185.7z"/>
	<path class="st0" d="M83,176.3l-1.4,17.6l-6.2-0.8l1.4-17.6L83,176.3z M89.2,175l3.3,0.4l-0.9,6.4l-1-0.1c-0.2,0-0.3,0.1-0.3,0.2
		l-2,15.1l-6.6-0.9l2.3-17.7C84.4,175.7,85.9,174.5,89.2,175z M93,177.5l6.4,0.9c-1.3,4.1-2.8,9.5-4,17.2l-6.2-0.8
		C90.3,187.7,91.5,182.2,93,177.5z"/>
	<path class="st0" d="M53,181.4l0.2-0.3l-2.7-1.2l6.1-13.8l0.5,0.2l0.3-1.6l4.1,1.8l-0.3,1.6l0.3,0.2c0.3-0.5,0.6-1,0.9-1.3l4.5,2
		c-0.4,0.3-0.8,0.8-1.1,1.3l0.3,0.2l-1.9,4.4c0.1,0.1,0.3,0.1,0.4,0.2l2.6-5.8l9.9,4.4l-2.4,5.6c0.1,0,0.2,0.1,0.3,0.1l-2.3,5.1
		c-0.8-0.4-1.6-0.6-2.3-0.8c0,0.3,0,0.5,0.1,0.8c0.6,0,1.2,0,1.9,0.1l-1.7,3.9l0.2,0.1l-2.2,4.9l-2.6-1.1l-0.2,0.4l-4.8-2.1l0.2-0.4
		l-2.6-1.1l-0.1,0.3l-10.3-4.5l1.9-4.4L53,181.4z M56.7,178.1l0.7,0.3l0.4-0.8l-0.7-0.3L56.7,178.1z M60,184.4l0.2-0.4l-2.1-0.9
		l-0.2,0.3L60,184.4z M57.9,175.3l0.7,0.3l0.4-0.9l-0.7-0.3L57.9,175.3z M59.3,172.3l0.7,0.3l0.4-0.9l-0.7-0.3L59.3,172.3z
		 M60.3,183.6l0.4,0.2l0.9-2.1c0.4-0.6,1-1.2,1.8-1.7c-0.4-0.2-0.8-0.4-1.3-0.6L60.3,183.6z M64,186.9l2,0.9l0.2-0.5l-2-0.9
		L64,186.9z M68.6,184.5c0.3-0.1,0.6-0.2,0.9-0.3l-2.4-1c-0.3,0.1-0.7,0.2-0.9,0.3L68.6,184.5z M68.9,178.7c0.5-0.1,1.1-0.2,1.7-0.2
		l-2.7-1.2C68.3,177.7,68.6,178.2,68.9,178.7z M70,174.7l1,0.4l0.4-0.8l-1-0.4L70,174.7z"/>
	<path class="st0" d="M41.6,169.5l-5.2,6.2l-10.2-8.5l5.2-6.2L41.6,169.5z M44.9,154.3l-0.9,1l0.9,0.8l0.9-1l4.6,3.9l-8.6,10.2
		l-10.2-8.5l8.6-10.2L44.9,154.3z M32.8,167.9l1.6,1.4l0.5-0.6l-1.6-1.4L32.8,167.9z M46.8,166l3-3.6c1.2-1.4,3.1-1.6,4.3-0.6
		l3.1,2.6l-3.9,4.6l-0.6-0.5c-0.2-0.2-0.5-0.2-0.7,0.1l-0.3,0.3c0.4,0.3,0.8,0.6,1.2,0.9l-4.1,4.8c-0.4-0.3-0.8-0.5-1.2-0.8
		l-1.3,1.5l1.1,0.9l-3.7,4.4l-1.1-0.9l-0.7,0.8l-4.3-3.7l0.7-0.8l-1-0.8l3.7-4.4l1,0.8l0.7-0.8c-0.4-0.2-0.9-0.4-1.3-0.5l4.2-4.9
		C45.9,165.6,46.3,165.8,46.8,166z M38.9,161.5l0.9,0.8l0.5-0.6l-0.9-0.8L38.9,161.5z M41.5,158.4l0.9,0.8l0.5-0.6l-0.9-0.8
		L41.5,158.4z"/>
	<path class="st0" d="M28,139.1c2.3,0,4.6,0.6,6.2,2.1l-0.4,0.3l1.6,2.3l-0.6,0.5c1.1-0.1,2,0.6,2.8,1.8l1.5,2.2l-0.4,0.3l1.6,2.5
		c-1.2,0.2-2.8,1.2-4.3,2.2l-1.7-2.5c0.1-0.1,0.3-0.2,0.4-0.3l-0.2-0.3c-0.1-0.1-0.2-0.1-0.3,0.1l-0.5,0.4l2,3l-3.5,2.4l-6.2-9.2
		l2.3-1.5c-2.1-1-3.2-1-5.6,0.6c0.4-0.1,0.8-0.2,1.2-0.2l1.4,2.1l0.7-0.4l5.7,8.4l-2.8,1.8l-5.1-7.6c-0.2,0-0.3,0-0.5,0.1l5.4,8
		l-2.9,1.9l-1.6-2.3l-0.4,0.2l1.6,2.3l-2.9,1.9l-1.6-2.3l-0.5,0.3l-2.9-4.3l0.5-0.3l-1.4-2.1l2.9-1.9l1.4,2.1l0.4-0.2l-1.4-2.2
		l0.8-0.5c-2,0.6-3.8,1.5-5.1,2.3l-3.2-4.7c0.2-0.2,0.5-0.3,0.8-0.5l-2.8-4.1l4.2-2.8l4.1-1.9l1.5,2.2c0.2-0.1,0.4-0.2,0.6-0.3
		c1.9-1.8,2.1-3.2,1.4-4.9l6-4C29,134.6,28.9,137,28,139.1z M18.3,146c0.2-0.1,0.4-0.1,0.7-0.2l-0.9-1.3l-0.6,0.3L18.3,146z
		 M29.4,144.4l1.3,2l0.5-0.3l-1.3-2L29.4,144.4z"/>
	<path class="st0" d="M13.6,123.2c0.9-0.3,2,0.3,2.3,1.2c0.3,0.9-0.2,2-1.2,2.3c-1,0.3-2-0.2-2.3-1.2
		C12.1,124.5,12.7,123.5,13.6,123.2z"/>
	<path class="st0" d="M19.4,100l0.3,10.3l-19.3,0.6L0,100.2c-0.2-5.6,3.2-7.9,7.5-8l3.1-0.1C16,91.9,19.1,94,19.4,100z M8.1,99.2
		c-0.9,0-1.8,0.6-1.7,2.1l0.1,2.5l6.7-0.2l-0.1-2.3c-0.1-1.9-1-2.2-2-2.2L8.1,99.2z"/>
	<path class="st0" d="M21.8,79.1l-1.1,5.2c-0.9,4.3-3.3,5.7-7,4.9l-2.9-0.6c-3.6-0.8-5.2-3.1-4.3-7.3L7.6,76
		c0.9-4.3,3.5-5.5,6.9-4.8l3,0.6C20.9,72.6,22.8,74.8,21.8,79.1z M14.4,77.7c-0.4-0.1-0.9,0.1-1.1,0.8l-0.6,2.9
		c-0.2,0.7,0.3,1,0.7,1.1l0.6,0.1c0.5,0.1,0.9,0,1.1-0.8l0.6-2.9c0.2-0.8-0.3-1-0.7-1.1L14.4,77.7z"/>
	<path class="st0" d="M28.1,62.4l-6.1-2.9c-0.8-0.4-1.3-0.1-1.6,0.6l-0.7,1.3c-0.4,0.8-0.2,1.5,0.5,1.8l6.1,2.9l-3,6.2l-8.2-4
		c-2.8-1.4-3.9-3.8-2.5-6.7l3.4-7c1.4-2.9,4.1-3.9,7-2.5l8.2,4L28.1,62.4z"/>
	<path class="st0" d="M40.2,44.9l-5.6,6.8c-2,2.4-4.4,2.7-6.2,1.2l-0.8-0.6c-1.8-1.5-1.8-3.7,0-5.9l4.5-5.4
		c-0.4-0.3-0.7-0.3-1.1,0.2l-6.3,7.7l-3.8-3.1l7.8-9.4c2.6-3.2,4.9-2.8,7.7-0.5l3.8,3.1C42,40.4,42.1,42.6,40.2,44.9z M35.1,43.6
		c-0.2-0.1-0.4-0.1-0.6,0.2l-2.3,2.7c-0.3,0.3-0.3,0.5-0.1,0.7l0.2,0.1c0.2,0.2,0.4,0.2,0.7-0.2l2.3-2.7c0.3-0.3,0.2-0.5,0-0.6
		L35.1,43.6z"/>
	<path class="st0" d="M46.4,28.8l0.7,0.9c0.4,0.5,0.5,0.5,1.1,0.1l5.2-3.9l3.8,4.9l-7,5.3c-3.1,2.4-5.4,1.8-7.1-0.5L41,32.8
		l-2.3,1.8l-3.8-4.9l2.3-1.8l-1.6-2.1l5.3-4l1.6,2.1l6.1-4.7l3.8,4.9L46.4,28.8z"/>
	<path class="st0" d="M67.8,19.6l-6.6,3c0.2,0.4,0.6,0.6,1.3,0.3l9.3-4.2l2,4.4l-11.2,5c-3.3,1.5-5.4,0.6-7-2.9l-1.8-4.1
		c-0.9-2-0.5-4.6,2.5-6l7.7-3.4c2.8-1.3,4.9-0.4,6,1.9l0.3,0.7C71.3,16.5,70.9,18.2,67.8,19.6z M64.4,16.7c-0.1-0.3-0.4-0.4-0.8-0.2
		L60.2,18c-0.6,0.3-0.8,0.8-0.5,1.2l0.1,0.2l4.3-1.9c0.3-0.2,0.5-0.4,0.4-0.7L64.4,16.7z"/>
	<path class="st0" d="M86,11.2c0.2,0.9-0.5,1.9-1.5,2c-0.9,0.1-1.9-0.4-2.1-1.5c-0.2-1,0.5-1.9,1.5-2.1C85,9.6,85.8,10.3,86,11.2z"
		/>
</g>
<g>
	<path class="st0" d="M84.1,95.1c7.5,0,13.6-8.2,13.6-18.2c0-10-6.1-18.2-13.6-18.2s-13.6,8.2-13.6,18.2
		C70.5,86.9,76.6,95.1,84.1,95.1z"/>
	<path class="st0" d="M124.5,112.8c-0.3-0.4-0.6-0.7-0.7-1c-3.1-6.5-11.4-14.2-24.9-14.3h-0.5c-13.3,0-21.6,7.3-25,14.1
		c-0.1,0.2-0.4,0.5-0.6,0.8c-0.3,0.4-0.6,0.7-0.9,1.2c-2.8,4.3-4.2,9.2-4,13.8c0.2,4.8,2.2,8.7,5.7,10.9c1.4,0.9,2.9,1.3,4.5,1.3
		c3.3,0,6.2-1.8,9.7-3.9c2.2-1.3,4.5-2.7,7-3.8c0.3-0.1,1.4-0.2,3.3-0.2c2.3,0,3.9,0.2,4.2,0.3c2.4,1.1,4.6,2.5,6.7,3.9
		c3.2,2.1,6.2,4.1,9.5,4.1c1.4,0,2.8-0.4,4.1-1.1c7.1-4,8.4-15,3-24.5C125.2,113.7,124.9,113.2,124.5,112.8z"/>
	<path class="st0" d="M113.1,95.1c7.5,0,13.6-8.2,13.6-18.2c0-10-6.1-18.2-13.6-18.2c-7.5,0-13.6,8.2-13.6,18.2
		C99.5,86.9,105.6,95.1,113.1,95.1z"/>
	<path class="st0" d="M135.5,85.7c-6,0-10.7,6.2-10.7,14.2c0,7.9,4.7,14.2,10.7,14.2c6,0,10.7-6.2,10.7-14.2
		C146.2,91.9,141.5,85.7,135.5,85.7z"/>
	<path class="st0" d="M73.6,99.9c0-8-4.7-14.2-10.7-14.2s-10.7,6.2-10.7,14.2c0,7.9,4.7,14.2,10.7,14.2S73.6,107.8,73.6,99.9z"/>
</g>
</svg>
