<?xml version="1.0" encoding="utf-8"?>
<!-- Generator: $$$/GeneralStr/196=Adobe Illustrator 27.6.0, SVG Export Plug-In . SVG Version: 6.00 Build 0)  -->
<svg version="1.1" id="圖層_1" xmlns="http://www.w3.org/2000/svg" xmlns:xlink="http://www.w3.org/1999/xlink" x="0px" y="0px"
	 viewBox="0 0 80 80" style="enable-background:new 0 0 80 80;" xml:space="preserve">
<style type="text/css">
	.st0{fill:#3670C7;}
</style>
<g>
  <animateTransform attributeName="transform" begin="0s" dur="60s" type="rotate" from="0 40 40" to="360 40 40" repeatCount="indefinite"/>
	<path class="st0" d="M42.6,7.9L40,7.5c0.5-1.6,1.2-3.9,1.7-7l2.5,0.4C43.7,3.8,43.2,6,42.6,7.9z M44.1,8.9l-1.3-0.2l0.4-2.6
		l0.4,0.1c0.1,0,0.1,0,0.1-0.1L44.5,0l2.7,0.4l-1,7.2C46.1,8.6,45.4,9.1,44.1,8.9z M46.6,8.4l0.6-7.1l2.5,0.4l-0.6,7.1L46.6,8.4z"/>
	<path class="st0" d="M58.8,6.5l-0.1,0.1l1.1,0.5l-2.5,5.6l-0.2-0.1l-0.1,0.7l-1.7-0.8l0.1-0.7l-0.1-0.1c-0.1,0.2-0.3,0.4-0.4,0.5
		l-1.8-0.8c0.2-0.1,0.3-0.3,0.5-0.5l-0.1-0.1l0.8-1.8c-0.1,0-0.1-0.1-0.2-0.1L53,11.4l-4-1.8l1-2.2c0,0-0.1,0-0.1,0l0.9-2.1
		c0.3,0.1,0.6,0.3,0.9,0.3c0-0.1,0-0.2,0-0.3c-0.2,0-0.5,0-0.8-0.1l0.7-1.6l-0.1,0l0.9-2l1.1,0.5l0.1-0.2l1.9,0.9L55.5,3l1,0.5
		l0.1-0.1l4.1,1.9L59.9,7L58.8,6.5z M51.9,9.1l-0.4-0.2l-0.1,0.3l0.4,0.2L51.9,9.1z M52.4,7.5c-0.2,0-0.4,0.1-0.7,0.1l1.1,0.5
		C52.6,7.9,52.4,7.7,52.4,7.5z M52.5,5.1c-0.1,0-0.2,0.1-0.4,0.1l1,0.4c0.1,0,0.3-0.1,0.4-0.1L52.5,5.1z M54.4,4.2l-0.8-0.4
		l-0.1,0.2l0.8,0.4L54.4,4.2z M55.8,5.5l-0.2-0.1l-0.4,0.9c-0.1,0.2-0.4,0.5-0.8,0.7c0.1,0.1,0.3,0.2,0.5,0.3L55.8,5.5z M56.2,10.1
		L55.9,10l-0.2,0.4l0.3,0.1L56.2,10.1z M56,5.2l-0.1,0.1l0.8,0.4l0.1-0.1L56,5.2z M56.8,8.9l-0.3-0.1l-0.2,0.4l0.3,0.1L56.8,8.9z
		 M57.3,7.8L57,7.6L56.9,8l0.3,0.1L57.3,7.8z"/>
	<path class="st0" d="M61.3,12.7l-1.2,1.4c-0.5,0.6-1.3,0.6-1.8,0.2L57,13.3l1.6-1.9l0.3,0.2c0.1,0.1,0.2,0.1,0.3,0l0.1-0.1
		c-0.2-0.1-0.3-0.2-0.5-0.3l1.7-1.9c0.1,0.1,0.3,0.2,0.5,0.3l0.5-0.6L61,8.6l1.5-1.8L63,7.2l0.3-0.3L65,8.4l-0.3,0.3L65.2,9
		l-1.5,1.8l-0.4-0.3L63,10.7c0.2,0.1,0.3,0.2,0.5,0.2l-1.7,2C61.6,12.9,61.5,12.8,61.3,12.7z M62,17.5l0.4-0.4L62,16.8l-0.4,0.4
		l-1.9-1.6l3.5-4.1l4.1,3.5l-3.5,4.1L62,17.5z M63.4,15.9L63,15.5l-0.2,0.3l0.4,0.3L63.4,15.9z M63.4,11.3l2.1-2.5l4.1,3.5l-2.1,2.5
		L63.4,11.3z M64.5,14.6l-0.4-0.3l-0.2,0.3l0.4,0.3L64.5,14.6z M66.9,12l-0.7-0.6l-0.2,0.2l0.7,0.6L66.9,12z"/>
	<path class="st0" d="M68.8,23.7c-1,0-1.9-0.3-2.5-0.9l0.2-0.1l-0.6-0.9l0.3-0.2c-0.4,0-0.8-0.2-1.1-0.7L64.4,20l0.2-0.1l-0.7-1
		c0.5-0.1,1.2-0.5,1.8-0.9l0.7,1c-0.1,0-0.1,0.1-0.2,0.1l0.1,0.1c0,0,0.1,0,0.1,0l0.2-0.1l-0.8-1.2l1.4-0.9l2.5,3.7l-0.9,0.6
		c0.8,0.4,1.3,0.4,2.3-0.2c-0.2,0-0.3,0.1-0.5,0.1L70,20.3l-0.3,0.2L67.4,17l1.1-0.7l2,3.1c0.1,0,0.1,0,0.2,0L68.6,16l1.2-0.8l0.6,1
		l0.1-0.1l-0.6-1l1.2-0.8l0.6,1l0.2-0.1l1.2,1.7l-0.2,0.1l0.6,0.9l-1.2,0.8l-0.6-0.9l-0.1,0.1l0.6,0.9L71.8,19
		c0.8-0.2,1.6-0.6,2.1-0.9l1.3,1.9c-0.1,0.1-0.2,0.1-0.3,0.2l1.1,1.7L74.2,23l-1.7,0.8L72,22.9c-0.1,0.1-0.2,0.1-0.2,0.1
		c-0.8,0.7-0.8,1.3-0.6,2l-2.5,1.6C68.3,25.6,68.4,24.6,68.8,23.7z M68.2,21.6l-0.5-0.8l-0.2,0.1l0.5,0.8L68.2,21.6z M72.8,21
		c-0.1,0-0.2,0-0.3,0.1l0.3,0.5l0.2-0.1L72.8,21z"/>
	<path class="st0" d="M74.6,30.2c-0.4,0.1-0.8-0.1-0.9-0.5c-0.1-0.4,0.1-0.8,0.5-0.9c0.4-0.1,0.8,0.1,0.9,0.5
		C75.2,29.7,74.9,30.1,74.6,30.2z"/>
	<path class="st0" d="M72.2,39.7l-0.1-4.2l7.8-0.2l0.1,4.4c0.1,2.3-1.3,3.2-3.1,3.2l-1.2,0C73.5,43,72.2,42.1,72.2,39.7z M76.7,40
		c0.4,0,0.7-0.2,0.7-0.9l0-1l-2.7,0.1l0,0.9c0,0.8,0.4,0.9,0.8,0.9L76.7,40z"/>
	<path class="st0" d="M71.1,48.2l0.5-2.1c0.4-1.7,1.4-2.3,2.9-1.9l1.2,0.3c1.5,0.3,2.1,1.3,1.7,3l-0.5,2.1c-0.4,1.7-1.5,2.2-2.8,1.9
		l-1.2-0.3C71.4,50.8,70.7,49.9,71.1,48.2z M74.1,48.8c0.2,0,0.4,0,0.4-0.3l0.3-1.2c0.1-0.3-0.1-0.4-0.3-0.5l-0.2-0.1
		c-0.2-0.1-0.4,0-0.5,0.3l-0.3,1.2c-0.1,0.3,0.1,0.4,0.3,0.5L74.1,48.8z"/>
	<path class="st0" d="M68.5,54.9l2.5,1.2c0.3,0.2,0.5,0.1,0.7-0.3l0.3-0.5c0.2-0.3,0.1-0.6-0.2-0.7l-2.5-1.2l1.2-2.5l3.3,1.6
		c1.2,0.6,1.6,1.6,1,2.7L73.4,58c-0.6,1.2-1.7,1.6-2.8,1l-3.3-1.6L68.5,54.9z"/>
	<path class="st0" d="M63.5,61.9l2.3-2.7c0.8-1,1.8-1.1,2.5-0.5l0.3,0.3c0.7,0.6,0.7,1.5,0,2.4l-1.8,2.2c0.2,0.1,0.3,0.1,0.5-0.1
		l2.6-3.1l1.5,1.3l-3.2,3.8c-1.1,1.3-2,1.1-3.1,0.2l-1.5-1.3C62.7,63.7,62.7,62.9,63.5,61.9z M65.5,62.5c0.1,0.1,0.2,0.1,0.3-0.1
		l0.9-1.1c0.1-0.1,0.1-0.2,0-0.3L66.7,61c-0.1-0.1-0.2-0.1-0.3,0.1l-0.9,1.1C65.4,62.3,65.4,62.4,65.5,62.5L65.5,62.5z"/>
	<path class="st0" d="M60.9,68.5l-0.3-0.4c-0.2-0.2-0.2-0.2-0.5,0L58,69.6l-1.5-2l2.8-2.1c1.3-0.9,2.2-0.7,2.9,0.2l0.8,1.1l1-0.7
		l1.5,2l-1,0.7l0.7,0.9L63,71.4l-0.7-0.9l-2.5,1.9l-1.5-2L60.9,68.5z"/>
	<path class="st0" d="M52.1,72.1l2.7-1.2c-0.1-0.2-0.2-0.3-0.5-0.1l-3.8,1.7l-0.8-1.8l4.6-2c1.4-0.6,2.2-0.2,2.8,1.2l0.7,1.7
		c0.4,0.8,0.2,1.9-1.1,2.4l-3.1,1.4c-1.2,0.5-2,0.1-2.4-0.8l-0.1-0.3C50.7,73.3,50.9,72.7,52.1,72.1z M53.5,73.3
		c0,0.1,0.2,0.2,0.3,0.1l1.4-0.6c0.2-0.1,0.3-0.3,0.2-0.5l0-0.1L53.7,73C53.5,73,53.5,73.1,53.5,73.3L53.5,73.3z"/>
	<path class="st0" d="M44.7,75.4c-0.1-0.4,0.2-0.8,0.6-0.8s0.8,0.2,0.8,0.6c0.1,0.4-0.2,0.8-0.6,0.8C45.1,76.1,44.8,75.8,44.7,75.4z
		"/>
	<path class="st0" d="M33.7,71.6l-0.6,7.1l-2.5-0.3l0.5-7.1L33.7,71.6z M36.2,71l1.3,0.2l-0.3,2.6l-0.4-0.1c-0.1,0-0.1,0-0.1,0.1
		L35.8,80l-2.7-0.4l1-7.2C34.3,71.4,34.9,70.9,36.2,71z M37.8,72.1l2.6,0.3c-0.5,1.7-1.1,3.9-1.6,7l-2.5-0.3
		C36.7,76.2,37.2,74,37.8,72.1z"/>
	<path class="st0" d="M21.5,73.6l0.1-0.1L20.5,73l2.5-5.6l0.2,0.1l0.1-0.7l1.7,0.7l-0.1,0.7l0.1,0.1c0.1-0.2,0.2-0.4,0.4-0.5
		l1.8,0.8c-0.2,0.1-0.3,0.3-0.5,0.5l0.1,0.1l-0.8,1.8c0.1,0,0.1,0,0.2,0.1l1-2.4l4,1.8l-1,2.3c0,0,0.1,0,0.1,0l-0.9,2.1
		c-0.3-0.1-0.6-0.3-0.9-0.3c0,0.1,0,0.2,0,0.3c0.2,0,0.5,0,0.8,0.1l-0.7,1.6l0.1,0l-0.9,2L26.8,78l-0.1,0.2l-1.9-0.9l0.1-0.2l-1-0.5
		l-0.1,0.1l-4.2-1.8l0.8-1.8L21.5,73.6z M23,72.3l0.3,0.1l0.1-0.3L23.2,72L23,72.3z M24.3,74.9l0.1-0.1l-0.8-0.4l-0.1,0.1L24.3,74.9
		z M23.5,71.2l0.3,0.1L24,71l-0.3-0.1L23.5,71.2z M24.1,70l0.3,0.1l0.2-0.4l-0.3-0.1L24.1,70z M24.5,74.6l0.2,0.1l0.4-0.9
		c0.1-0.2,0.4-0.5,0.8-0.7c-0.1-0.1-0.3-0.2-0.5-0.3L24.5,74.6z M26,75.9l0.8,0.3l0.1-0.2l-0.8-0.3L26,75.9z M27.9,74.9
		c0.1,0,0.2-0.1,0.4-0.1l-1-0.4c-0.1,0-0.3,0.1-0.4,0.1L27.9,74.9z M28,72.6c0.2,0,0.4-0.1,0.7-0.1L27.6,72
		C27.7,72.2,27.9,72.4,28,72.6z M28.4,71l0.4,0.2l0.1-0.3l-0.4-0.2L28.4,71z"/>
	<path class="st0" d="M16.9,68.8l-2.1,2.5l-4.1-3.5l2.1-2.5L16.9,68.8z M18.2,62.6l-0.3,0.4l0.4,0.3l0.3-0.4l1.9,1.6L17,68.7
		l-4.1-3.5l3.5-4.2L18.2,62.6z M13.3,68.2l0.7,0.6l0.2-0.3l-0.7-0.6L13.3,68.2z M19,67.4l1.2-1.4c0.5-0.6,1.3-0.6,1.8-0.2l1.3,1.1
		l-1.6,1.9l-0.3-0.2c-0.1-0.1-0.2-0.1-0.3,0L21,68.6c0.2,0.1,0.3,0.2,0.5,0.3l-1.6,2c-0.1-0.1-0.3-0.2-0.5-0.3l-0.5,0.6l0.5,0.4
		l-1.5,1.8L17.3,73l-0.3,0.3l-1.8-1.5l0.3-0.3l-0.4-0.3l1.5-1.8l0.4,0.3l0.3-0.3c-0.2-0.1-0.3-0.2-0.5-0.2l1.7-2
		C18.7,67.3,18.8,67.3,19,67.4z M15.8,65.6l0.4,0.3l0.2-0.3L16,65.3L15.8,65.6z M16.8,64.3l0.4,0.3l0.2-0.3l-0.4-0.3L16.8,64.3z"/>
	<path class="st0" d="M11.4,56.5c1,0,1.9,0.3,2.5,0.9l-0.2,0.1l0.6,0.9l-0.3,0.2c0.4,0,0.8,0.2,1.1,0.7l0.6,0.9l-0.2,0.1l0.7,1
		c-0.5,0.1-1.2,0.5-1.7,0.9l-0.7-1c0.1,0,0.1-0.1,0.2-0.1L14,61c0,0-0.1,0-0.1,0l-0.2,0.1l0.8,1.2l-1.4,1l-2.5-3.7l0.9-0.6
		c-0.8-0.4-1.3-0.4-2.3,0.3c0.2,0,0.3-0.1,0.5-0.1l0.6,0.9l0.3-0.2l2.3,3.4L11.7,64l-2.1-3.1c-0.1,0-0.1,0-0.2,0l2.2,3.3L10.4,65
		l-0.6-0.9l-0.1,0.1l0.6,0.9l-1.2,0.8L8.4,65l-0.2,0.1l-1.2-1.7l0.2-0.1l-0.6-0.9l1.2-0.8l0.6,0.9l0.1-0.1L8,61.5l0.3-0.2
		c-0.8,0.3-1.6,0.6-2.1,0.9L5,60.3c0.1-0.1,0.2-0.1,0.3-0.2l-1.1-1.7l1.7-1.1l1.7-0.8l0.6,0.9c0.1-0.1,0.2-0.1,0.2-0.1
		c0.8-0.7,0.8-1.3,0.5-2l2.5-1.6C11.8,54.7,11.7,55.6,11.4,56.5z M7.4,59.3c0.1,0,0.2-0.1,0.3-0.1l-0.4-0.5l-0.2,0.1L7.4,59.3z
		 M12,58.7l0.5,0.8l0.2-0.1l-0.5-0.8L12,58.7z"/>
	<path class="st0" d="M5.5,50c0.4-0.1,0.8,0.1,0.9,0.5c0.1,0.4-0.1,0.8-0.5,0.9C5.6,51.6,5.2,51.4,5,51C4.9,50.6,5.2,50.2,5.5,50z"
		/>
	<path class="st0" d="M7.9,40.6L8,44.8L0.2,45L0,40.7c-0.1-2.3,1.3-3.2,3-3.3l1.2,0C6.5,37.3,7.8,38.2,7.9,40.6z M3.3,40.3
		c-0.4,0-0.7,0.2-0.7,0.9l0,1l2.7-0.1l0-0.9c0-0.8-0.4-0.9-0.8-0.9L3.3,40.3z"/>
	<path class="st0" d="M8.9,32.1l-0.5,2.1c-0.4,1.7-1.3,2.3-2.9,2l-1.2-0.3c-1.5-0.3-2.1-1.3-1.8-3l0.5-2.1c0.4-1.7,1.4-2.2,2.8-1.9
		l1.2,0.3C8.5,29.5,9.2,30.4,8.9,32.1z M5.8,31.6c-0.2,0-0.4,0-0.4,0.3l-0.3,1.2c-0.1,0.3,0.1,0.4,0.3,0.5l0.2,0.1
		c0.2,0,0.4,0,0.5-0.3l0.3-1.2c0.1-0.3-0.1-0.4-0.3-0.5L5.8,31.6z"/>
	<path class="st0" d="M11.4,25.4l-2.5-1.2c-0.3-0.2-0.5-0.1-0.7,0.3L8,25c-0.2,0.3-0.1,0.6,0.2,0.7l2.5,1.2l-1.2,2.5l-3.3-1.6
		c-1.2-0.6-1.6-1.6-1-2.7l1.4-2.8c0.6-1.2,1.7-1.6,2.8-1l3.3,1.6L11.4,25.4z"/>
	<path class="st0" d="M16.3,18.2L14.1,21c-0.8,1-1.8,1.1-2.5,0.5l-0.3-0.3c-0.7-0.6-0.7-1.5,0-2.4l1.8-2.2c-0.2-0.1-0.3-0.1-0.5,0.1
		L10,19.8l-1.5-1.3l3.2-3.8c1.1-1.3,2-1.1,3.1-0.2l1.5,1.3C17.1,16.4,17.1,17.3,16.3,18.2z M14.3,17.7c-0.1-0.1-0.2-0.1-0.3,0.1
		l-0.9,1.1c-0.1,0.1-0.1,0.2,0,0.3l0.1,0.1c0.1,0.1,0.2,0.1,0.3-0.1l0.9-1.1C14.4,17.9,14.4,17.8,14.3,17.7L14.3,17.7z"/>
	<path class="st0" d="M18.8,11.7l0.3,0.4c0.2,0.2,0.2,0.2,0.5,0l2.1-1.6l1.5,2l-2.8,2.1c-1.3,1-2.2,0.7-2.9-0.2l-0.8-1.1l-1,0.7
		l-1.5-2l1-0.7l-0.7-0.9l2.2-1.6l0.7,0.9l2.5-1.9l1.5,2L18.8,11.7z"/>
	<path class="st0" d="M27.6,7.9l-2.7,1.2c0.1,0.2,0.2,0.3,0.5,0.1l3.8-1.7L30,9.4l-4.5,2c-1.4,0.6-2.2,0.3-2.8-1.2l-0.8-1.7
		c-0.4-0.8-0.2-1.9,1-2.4L26,4.7c1.2-0.5,2-0.2,2.4,0.8l0.1,0.3C28.9,6.7,28.8,7.4,27.6,7.9z M26.1,6.8c0-0.1-0.2-0.2-0.3-0.1
		l-1.4,0.6c-0.2,0.1-0.3,0.3-0.2,0.5l0,0.1L26,7.1C26.1,7,26.2,6.9,26.1,6.8L26.1,6.8z"/>
	<path class="st0" d="M34.9,4.6c0.1,0.4-0.2,0.8-0.6,0.8c-0.4,0.1-0.8-0.2-0.8-0.6c-0.1-0.4,0.2-0.8,0.6-0.8
		C34.5,3.9,34.9,4.2,34.9,4.6z"/>
</g>
<g>
	<path class="st0" d="M34.2,38.6c3.1,0,5.5-3.3,5.5-7.4c0-4.1-2.5-7.4-5.5-7.4s-5.5,3.3-5.5,7.4C28.6,35.3,31.1,38.6,34.2,38.6z"/>
	<path class="st0" d="M50.6,45.8c-0.1-0.2-0.2-0.3-0.3-0.4c-1.2-2.6-4.6-5.8-10.1-5.8H40c-5.4,0-8.8,2.9-10.1,5.7
		c0,0.1-0.1,0.2-0.3,0.3c-0.1,0.2-0.3,0.3-0.4,0.5c-1.1,1.8-1.7,3.8-1.6,5.6c0.1,2,0.9,3.5,2.3,4.4c0.6,0.4,1.2,0.5,1.8,0.5
		c1.3,0,2.5-0.7,3.9-1.6c0.9-0.5,1.8-1.1,2.8-1.5c0.1,0,0.6-0.1,1.4-0.1c0.9,0,1.6,0.1,1.7,0.1c1,0.4,1.9,1,2.7,1.6
		c1.3,0.9,2.5,1.7,3.9,1.7c0.6,0,1.1-0.2,1.6-0.4c2.9-1.6,3.4-6.1,1.2-10C50.8,46.2,50.7,46,50.6,45.8z"/>
	<path class="st0" d="M45.9,38.6c3.1,0,5.5-3.3,5.5-7.4c0-4.1-2.5-7.4-5.5-7.4c-3.1,0-5.5,3.3-5.5,7.4
		C40.4,35.3,42.9,38.6,45.9,38.6z"/>
	<path class="st0" d="M55,34.8c-2.4,0-4.4,2.5-4.4,5.8c0,3.2,1.9,5.8,4.4,5.8s4.4-2.5,4.4-5.8C59.4,37.3,57.5,34.8,55,34.8z"/>
	<path class="st0" d="M29.9,40.6c0-3.2-1.9-5.8-4.4-5.8c-2.4,0-4.4,2.5-4.4,5.8c0,3.2,1.9,5.8,4.4,5.8C28,46.3,29.9,43.8,29.9,40.6z
		"/>
</g>
</svg>
