<?xml version="1.0" encoding="utf-8"?>
<!-- Generator: $$$/GeneralStr/196=Adobe Illustrator 27.6.0, SVG Export Plug-In . SVG Version: 6.00 Build 0)  -->
<svg version="1.1" id="圖層_1" xmlns="http://www.w3.org/2000/svg" xmlns:xlink="http://www.w3.org/1999/xlink" x="0px" y="0px"
	 viewBox="0 0 130 130" style="enable-background:new 0 0 130 130;" xml:space="preserve">
<style type="text/css">
	.st0{fill:#FFFFFF;}
</style>
<g>
  <animateTransform attributeName="transform" begin="0s" dur="60s" type="rotate" from="0 65 65" to="360 65 65" repeatCount="indefinite"/>
	<path class="st0" d="M69.2,12.8l-4.2-0.6c0.9-2.7,1.9-6.3,2.7-11.3l4.1,0.6C71,6.1,70.2,9.7,69.2,12.8z M71.6,14.5l-2.1-0.3
		l0.6-4.2l0.7,0.1c0.1,0,0.2-0.1,0.2-0.2L72.4,0l4.4,0.6l-1.7,11.6C74.8,14.1,73.8,14.8,71.6,14.5z M75.8,13.7l1-11.6l4.1,0.6
		l-1,11.6L75.8,13.7z"/>
	<path class="st0" d="M95.6,10.5l-0.1,0.2l1.8,0.8L93,20.6l-0.3-0.1l-0.2,1.1l-2.7-1.2l0.2-1.1l-0.2-0.1c-0.2,0.3-0.4,0.6-0.6,0.9
		l-3-1.3c0.3-0.2,0.5-0.5,0.8-0.8l-0.2-0.1l1.3-2.9c-0.1,0-0.2-0.1-0.3-0.1l-1.7,3.8l-6.5-2.9l1.6-3.6c-0.1,0-0.1-0.1-0.2-0.1
		l1.5-3.4c0.5,0.2,1,0.4,1.5,0.5c0-0.2,0-0.3-0.1-0.5c-0.4,0-0.8,0-1.2-0.1L84,6l-0.2-0.1l1.5-3.2L87,3.4l0.1-0.3l3.1,1.4l-0.1,0.3
		l1.7,0.8l0.1-0.2l6.7,3l-1.3,2.9L95.6,10.5z M84.3,14.8l-0.6-0.3L83.4,15l0.6,0.3L84.3,14.8z M85.1,12.2c-0.4,0.1-0.7,0.1-1.1,0.2
		l1.8,0.8C85.4,12.8,85.2,12.5,85.1,12.2z M85.3,8.3c-0.2,0.1-0.4,0.1-0.6,0.2l1.5,0.7c0.2,0,0.4-0.1,0.6-0.2L85.3,8.3z M88.3,6.8
		L87,6.2l-0.2,0.4l1.3,0.6L88.3,6.8z M90.7,9l-0.3-0.1l-0.6,1.4c-0.2,0.4-0.7,0.8-1.2,1.1c0.2,0.1,0.5,0.3,0.8,0.4L90.7,9z
		 M91.4,16.4l-0.5-0.2l-0.3,0.6l0.5,0.2L91.4,16.4z M91,8.5l-0.1,0.2l1.4,0.6l0.1-0.2L91,8.5z M92.3,14.5l-0.5-0.2l-0.3,0.6l0.5,0.2
		L92.3,14.5z M93.1,12.6l-0.5-0.2l-0.2,0.5l0.5,0.2L93.1,12.6z"/>
	<path class="st0" d="M99.6,20.7l-2,2.3c-0.8,0.9-2.1,1-2.9,0.3l-2-1.7l2.6-3l0.4,0.4c0.1,0.1,0.3,0.1,0.5,0l0.2-0.2
		c-0.3-0.2-0.5-0.4-0.8-0.6l2.7-3.2c0.2,0.2,0.5,0.4,0.8,0.6l0.8-1l-0.7-0.6l2.5-2.9l0.7,0.6l0.4-0.5l2.9,2.4l-0.4,0.5l0.7,0.6
		l-2.5,2.9l-0.6-0.6l-0.4,0.5c0.3,0.1,0.6,0.3,0.8,0.4l-2.8,3.2C100.1,20.9,99.9,20.8,99.6,20.7z M100.7,28.4l0.6-0.7l-0.6-0.5
		l-0.6,0.7l-3-2.6l5.8-6.7l6.7,5.7l-5.8,6.7L100.7,28.4z M103,25.8l-0.6-0.5l-0.4,0.4l0.6,0.5L103,25.8z M103,18.4l3.5-4l6.7,5.7
		l-3.5,4L103,18.4z M104.8,23.7l-0.6-0.5l-0.4,0.4l0.6,0.5L104.8,23.7z M108.8,19.5l-1.1-0.9l-0.3,0.4l1.1,0.9L108.8,19.5z"/>
	<path class="st0" d="M111.8,38.6c-1.5,0-3-0.5-4.1-1.4l0.3-0.2l-1-1.5l0.4-0.3c-0.7,0-1.3-0.4-1.8-1.2l-1-1.5l0.3-0.2l-1.1-1.6
		c0.8-0.2,1.9-0.8,2.9-1.4l1.1,1.7c-0.1,0.1-0.2,0.1-0.3,0.2l0.1,0.2c0.1,0.1,0.1,0,0.2,0l0.4-0.2l-1.3-2l2.3-1.5l4,6.1l-1.5,1
		c1.3,0.7,2.1,0.7,3.7-0.4c-0.3,0.1-0.6,0.1-0.8,0.1l-0.9-1.4l-0.4,0.3l-3.7-5.6l1.8-1.2l3.3,5c0.1,0,0.2,0,0.3-0.1l-3.5-5.3
		l1.9-1.3l1,1.6l0.2-0.2l-1-1.6l1.9-1.3l1,1.6l0.3-0.2l1.9,2.8l-0.3,0.2l0.9,1.4l-1.9,1.3l-0.9-1.4l-0.2,0.2l0.9,1.4l-0.6,0.4
		c1.3-0.4,2.5-0.9,3.4-1.5l2,3.1c-0.2,0.1-0.3,0.2-0.5,0.3l1.8,2.7l-2.8,1.8l-2.7,1.3l-0.9-1.5c-0.1,0.1-0.3,0.2-0.4,0.2
		c-1.3,1.1-1.4,2.1-0.9,3.2l-4,2.6C111.1,41.5,111.2,40,111.8,38.6z M110.9,35l-0.9-1.3l-0.3,0.2l0.9,1.3L110.9,35z M118.2,34.1
		c-0.1,0-0.3,0.1-0.4,0.1l0.6,0.9l0.4-0.2L118.2,34.1z"/>
	<path class="st0" d="M121.2,49.2c-0.6,0.2-1.3-0.2-1.5-0.8c-0.2-0.6,0.1-1.3,0.8-1.5c0.7-0.2,1.3,0.1,1.5,0.8
		C122.2,48.3,121.8,49,121.2,49.2z"/>
	<path class="st0" d="M117.2,64.5l-0.2-6.8l12.8-0.3l0.2,7.1c0.1,3.7-2.1,5.2-5,5.3l-2,0.1C119.4,69.8,117.3,68.4,117.2,64.5z
		 M124.7,65.1c0.6,0,1.2-0.4,1.2-1.4l0-1.6l-4.4,0.1l0,1.5c0,1.3,0.7,1.5,1.3,1.5L124.7,65.1z"/>
	<path class="st0" d="M115.5,78.3l0.8-3.4c0.6-2.8,2.2-3.7,4.7-3.2l1.9,0.4c2.4,0.5,3.4,2.1,2.8,4.9l-0.8,3.4
		c-0.7,2.8-2.4,3.6-4.6,3.1l-2-0.5C116,82.5,114.8,81.1,115.5,78.3z M120.4,79.2c0.3,0.1,0.6,0,0.7-0.5l0.4-1.9
		c0.1-0.5-0.2-0.7-0.4-0.8l-0.4-0.1c-0.3-0.1-0.6,0-0.7,0.5l-0.4,1.9c-0.1,0.5,0.2,0.7,0.5,0.7L120.4,79.2z"/>
	<path class="st0" d="M111.2,89.2l4,2c0.5,0.3,0.8,0.1,1.1-0.4l0.4-0.9c0.3-0.5,0.1-1-0.3-1.2l-4-2l2-4.1l5.4,2.7
		c1.9,0.9,2.5,2.6,1.6,4.4l-2.3,4.6c-0.9,1.9-2.8,2.5-4.6,1.6l-5.4-2.7L111.2,89.2z"/>
	<path class="st0" d="M103.1,100.6l3.7-4.4c1.3-1.6,2.9-1.7,4.1-0.8l0.5,0.4c1.2,1,1.2,2.4,0,3.9l-3,3.5c0.3,0.2,0.5,0.2,0.8-0.1
		l4.2-5l2.5,2.1l-5.2,6.2c-1.7,2.1-3.3,1.8-5.1,0.3l-2.5-2.1C101.9,103.6,101.8,102.2,103.1,100.6z M106.5,101.6
		c0.1,0.1,0.3,0.1,0.4-0.1l1.5-1.8c0.2-0.2,0.2-0.3,0.1-0.4l-0.1-0.1c-0.1-0.1-0.3-0.1-0.4,0.1l-1.5,1.8c-0.2,0.2-0.2,0.3,0,0.4
		L106.5,101.6z"/>
	<path class="st0" d="M98.9,111.3l-0.4-0.6c-0.3-0.3-0.3-0.4-0.8-0.1l-3.5,2.6l-2.4-3.3l4.6-3.4c2.1-1.5,3.6-1.1,4.7,0.4l1.3,1.8
		l1.6-1.2l2.5,3.3l-1.6,1.2l1.1,1.4l-3.5,2.6l-1.1-1.4l-4.1,3l-2.5-3.3L98.9,111.3z"/>
	<path class="st0" d="M84.7,117.2l4.4-1.9c-0.2-0.3-0.4-0.4-0.8-0.2l-6.2,2.7l-1.3-2.9l7.4-3.2c2.2-1,3.6-0.4,4.6,2l1.2,2.7
		c0.6,1.3,0.3,3-1.7,3.9l-5.1,2.2c-1.9,0.8-3.2,0.2-3.9-1.3l-0.2-0.5C82.4,119.2,82.7,118.1,84.7,117.2z M87,119.1
		c0.1,0.2,0.3,0.3,0.5,0.2l2.2-1c0.4-0.2,0.5-0.5,0.4-0.8l-0.1-0.1l-2.8,1.2C87,118.7,86.9,118.9,87,119.1L87,119.1z"/>
	<path class="st0" d="M72.6,122.6c-0.1-0.6,0.4-1.2,1-1.4c0.6-0.1,1.3,0.3,1.4,1c0.1,0.7-0.3,1.3-1,1.4
		C73.3,123.7,72.8,123.2,72.6,122.6z"/>
	<path class="st0" d="M54.8,116.3l-0.9,11.6l-4.1-0.5l0.9-11.6L54.8,116.3z M58.9,115.5l2.1,0.3l-0.6,4.2l-0.7-0.1
		c-0.1,0-0.2,0.1-0.2,0.2l-1.3,10l-4.4-0.6l1.5-11.7C55.7,115.9,56.7,115.2,58.9,115.5z M61.4,117.2l4.2,0.6
		c-0.9,2.7-1.8,6.3-2.6,11.4l-4.1-0.5C59.6,123.8,60.4,120.2,61.4,117.2z"/>
	<path class="st0" d="M35,119.7l0.1-0.2l-1.8-0.8l4-9.1l0.3,0.1l0.2-1.1l2.7,1.2l-0.2,1.1l0.2,0.1c0.2-0.4,0.4-0.6,0.6-0.9l3,1.3
		c-0.3,0.2-0.5,0.5-0.7,0.8l0.2,0.1l-1.3,2.9c0.1,0,0.2,0.1,0.3,0.1l1.7-3.9l6.5,2.9l-1.6,3.7c0.1,0,0.1,0.1,0.2,0.1l-1.5,3.4
		c-0.5-0.2-1-0.4-1.5-0.5c0,0.2,0,0.3,0.1,0.5c0.4,0,0.8,0,1.2,0.1l-1.2,2.6l0.2,0.1l-1.4,3.2l-1.7-0.8l-0.1,0.3l-3.1-1.4l0.1-0.3
		l-1.7-0.8l-0.1,0.2l-6.8-3l1.3-2.9L35,119.7z M37.4,117.6l0.5,0.2l0.2-0.5l-0.5-0.2L37.4,117.6z M39.6,121.7l0.1-0.2l-1.4-0.6
		l-0.1,0.2L39.6,121.7z M38.2,115.7l0.5,0.2l0.3-0.6l-0.5-0.2L38.2,115.7z M39.1,113.7l0.5,0.2l0.3-0.6l-0.5-0.2L39.1,113.7z
		 M39.8,121.2l0.3,0.1l0.6-1.4c0.2-0.4,0.7-0.8,1.2-1.1c-0.2-0.1-0.5-0.3-0.8-0.4L39.8,121.2z M42.2,123.3l1.3,0.6l0.2-0.4l-1.3-0.6
		L42.2,123.3z M45.3,121.8c0.2-0.1,0.4-0.1,0.6-0.2l-1.6-0.7c-0.2,0-0.4,0.1-0.6,0.2L45.3,121.8z M45.4,117.9
		c0.4-0.1,0.7-0.1,1.1-0.2l-1.8-0.8C45.1,117.3,45.3,117.6,45.4,117.9z M46.2,115.3l0.6,0.3l0.2-0.5l-0.6-0.3L46.2,115.3z"/>
	<path class="st0" d="M27.5,111.8l-3.4,4.1l-6.7-5.6l3.4-4.1L27.5,111.8z M29.7,101.8l-0.6,0.7l0.6,0.5l0.6-0.7l3.1,2.6l-5.7,6.8
		l-6.7-5.6l5.7-6.8L29.7,101.8z M21.7,110.8l1.1,0.9l0.3-0.4l-1.1-0.9L21.7,110.8z M30.9,109.6l2-2.3c0.8-0.9,2-1,2.9-0.4l2,1.7
		l-2.6,3.1l-0.4-0.4c-0.1-0.1-0.3-0.1-0.5,0l-0.2,0.2c0.3,0.2,0.6,0.4,0.8,0.6l-2.7,3.2c-0.2-0.2-0.5-0.4-0.8-0.5l-0.8,1l0.7,0.6
		l-2.4,2.9l-0.7-0.6l-0.4,0.5l-2.9-2.4l0.4-0.5l-0.7-0.5l2.4-2.9l0.7,0.5l0.4-0.5c-0.3-0.1-0.6-0.3-0.8-0.4l2.7-3.3
		C30.3,109.3,30.6,109.4,30.9,109.6z M25.6,106.6l0.6,0.5l0.4-0.4l-0.6-0.5L25.6,106.6z M27.4,104.5L28,105l0.4-0.4l-0.6-0.5
		L27.4,104.5z"/>
	<path class="st0" d="M18.5,91.8c1.5,0,3,0.4,4.1,1.4l-0.3,0.2l1,1.5l-0.4,0.3c0.7,0,1.3,0.4,1.8,1.2l1,1.5l-0.3,0.2l1.1,1.6
		c-0.8,0.2-1.9,0.8-2.8,1.4l-1.1-1.7c0.1-0.1,0.2-0.1,0.3-0.2l-0.1-0.2c-0.1-0.1-0.1,0-0.2,0l-0.3,0.2l1.3,2l-2.3,1.6l-4.1-6l1.5-1
		c-1.4-0.6-2.1-0.6-3.7,0.4c0.3-0.1,0.5-0.1,0.8-0.1l0.9,1.4l0.4-0.3l3.7,5.6L19,104l-3.4-5c-0.1,0-0.2,0-0.3,0.1l3.6,5.3l-1.9,1.3
		l-1-1.5l-0.2,0.2l1,1.5l-1.9,1.3l-1-1.5l-0.3,0.2l-1.9-2.8l0.3-0.2l-0.9-1.4l1.9-1.3l0.9,1.4l0.2-0.2l-0.9-1.4l0.5-0.4
		c-1.3,0.4-2.5,1-3.3,1.5l-2.1-3.1c0.2-0.1,0.3-0.2,0.5-0.3l-1.8-2.7l2.7-1.8l2.7-1.3l1,1.4c0.1-0.1,0.3-0.2,0.4-0.2
		c1.3-1.2,1.4-2.1,0.9-3.2l4-2.7C19.2,88.8,19.1,90.4,18.5,91.8z M12.1,96.4c0.1,0,0.3-0.1,0.4-0.1l-0.6-0.9l-0.4,0.2L12.1,96.4z
		 M19.4,95.3l0.9,1.3l0.3-0.2l-0.9-1.3L19.4,95.3z"/>
	<path class="st0" d="M9,81.3c0.6-0.2,1.3,0.2,1.5,0.8c0.2,0.6-0.1,1.3-0.8,1.5c-0.7,0.2-1.3-0.1-1.5-0.8C8,82.1,8.4,81.5,9,81.3z"
		/>
	<path class="st0" d="M12.8,66l0.2,6.8L0.2,73.2L0,66.1c-0.1-3.7,2.1-5.2,4.9-5.3l2-0.1C10.6,60.6,12.6,62,12.8,66z M5.3,65.5
		c-0.6,0-1.2,0.4-1.1,1.4l0.1,1.6l4.4-0.1l0-1.5c0-1.3-0.7-1.5-1.3-1.5L5.3,65.5z"/>
	<path class="st0" d="M14.4,52.2l-0.7,3.4c-0.6,2.8-2.2,3.7-4.6,3.2l-1.9-0.4c-2.4-0.5-3.5-2.1-2.9-4.8L5,50.2
		c0.6-2.8,2.3-3.6,4.5-3.1l2,0.4C13.8,47.9,15,49.3,14.4,52.2z M9.5,51.3c-0.3-0.1-0.6,0.1-0.7,0.5l-0.4,1.9
		c-0.1,0.5,0.2,0.7,0.4,0.8l0.4,0.1c0.3,0.1,0.6,0,0.7-0.5l0.4-1.9c0.1-0.5-0.2-0.7-0.5-0.7L9.5,51.3z"/>
	<path class="st0" d="M18.5,41.2l-4-1.9c-0.5-0.3-0.8-0.1-1.1,0.4L13,40.6c-0.3,0.5-0.1,1,0.3,1.2l4,1.9l-2,4.1l-5.4-2.6
		c-1.9-0.9-2.6-2.5-1.6-4.4l2.2-4.6c0.9-1.9,2.7-2.6,4.6-1.7l5.4,2.6L18.5,41.2z"/>
	<path class="st0" d="M26.5,29.6l-3.7,4.5c-1.3,1.6-2.9,1.8-4.1,0.8l-0.5-0.4c-1.2-1-1.2-2.4,0-3.9l2.9-3.6
		c-0.3-0.2-0.5-0.2-0.8,0.1l-4.2,5l-2.5-2l5.1-6.2c1.7-2.1,3.3-1.8,5.1-0.3l2.5,2.1C27.7,26.7,27.8,28.1,26.5,29.6z M23.2,28.8
		c-0.1-0.1-0.3-0.1-0.4,0.1l-1.5,1.8c-0.2,0.2-0.2,0.3-0.1,0.4l0.1,0.1c0.1,0.1,0.3,0.1,0.4-0.1l1.5-1.8c0.2-0.2,0.2-0.3,0-0.4
		L23.2,28.8z"/>
	<path class="st0" d="M30.6,19l0.5,0.6c0.3,0.3,0.4,0.4,0.8,0.1l3.4-2.6l2.5,3.2l-4.6,3.5c-2.1,1.6-3.5,1.2-4.7-0.3l-1.4-1.8
		l-1.5,1.2l-2.5-3.3l1.5-1.2L23.5,17l3.5-2.7l1.1,1.4l4-3.1l2.5,3.3L30.6,19z"/>
	<path class="st0" d="M44.8,12.9l-4.4,2c0.2,0.3,0.4,0.4,0.8,0.2l6.2-2.8l1.3,2.9l-7.4,3.3c-2.2,1-3.6,0.4-4.6-1.9l-1.2-2.7
		c-0.6-1.3-0.4-3,1.7-3.9l5.1-2.3c1.9-0.8,3.2-0.3,4,1.3l0.2,0.5C47,10.9,46.8,12,44.8,12.9z M42.5,11c-0.1-0.2-0.3-0.3-0.5-0.1
		l-2.2,1c-0.4,0.2-0.5,0.5-0.4,0.8l0.1,0.1l2.8-1.3C42.5,11.4,42.6,11.3,42.5,11L42.5,11z"/>
	<path class="st0" d="M56.8,7.4c0.1,0.6-0.4,1.3-1,1.4c-0.6,0.1-1.3-0.3-1.4-1s0.3-1.3,1-1.4C56.1,6.3,56.6,6.8,56.8,7.4z"/>
</g>
<g>
	<path class="st0" d="M55.5,62.7c5,0,9-5.4,9-12c0-6.6-4-12-9-12s-9,5.4-9,12S50.5,62.7,55.5,62.7z"/>
	<path class="st0" d="M82.2,74.4c-0.2-0.2-0.4-0.5-0.5-0.7c-2-4.3-7.5-9.3-16.5-9.5h-0.3c-8.8,0-14.3,4.8-16.5,9.3
		c-0.1,0.2-0.2,0.4-0.4,0.6c-0.2,0.2-0.4,0.5-0.6,0.8c-1.9,2.9-2.8,6.1-2.7,9.1c0.1,3.2,1.5,5.7,3.8,7.2c0.9,0.6,1.9,0.9,3,0.9
		c2.1,0,4.1-1.2,6.4-2.6c1.4-0.9,2.9-1.8,4.6-2.5c0.2-0.1,0.9-0.2,2.2-0.2c1.5,0,2.5,0.1,2.8,0.2c1.6,0.7,3,1.6,4.4,2.5
		c2.1,1.4,4.1,2.7,6.3,2.7c0.9,0,1.8-0.2,2.7-0.7c4.7-2.7,5.6-9.9,2-16.2C82.6,75,82.4,74.7,82.2,74.4z"/>
	<path class="st0" d="M74.6,62.7c5,0,9-5.4,9-12c0-6.6-4-12-9-12c-5,0-9,5.4-9,12S69.7,62.7,74.6,62.7z"/>
	<path class="st0" d="M89.4,56.6c-4,0-7.1,4.1-7.1,9.3s3.1,9.3,7.1,9.3c4,0,7.1-4.1,7.1-9.3C96.5,60.7,93.4,56.6,89.4,56.6z"/>
	<path class="st0" d="M48.6,65.9c0-5.2-3.1-9.3-7.1-9.3s-7.1,4.1-7.1,9.3c0,5.2,3.1,9.3,7.1,9.3S48.6,71.2,48.6,65.9z"/>
</g>
</svg>
